<svg xmlns="http://www.w3.org/2000/svg" viewBox="0 0 124 124"><g id="final"><g id="Moodle_Net" data-name="Moodle Net"><path d="M63.07645,33.25553l-.1461-.50617c-19.35578,1.99514-30.68876,4.594-47.38555,14.4939l.15111.49453L17.406,47.683a58.86986,58.86986,0,0,0-.15421,8.6201l.03814,1.32979c-2.02116,5.722.01438,10.29765,1.74092,14.486.01195-5.17557.22129-9.38981-1.23867-14.747a70.6,70.6,0,0,1,.11054-9.70478l2.15818-.06916c3.149.10942,6.40462.26238,9.54156.27507a32.36589,32.36589,0,0,0,.17148,6.77822c10.77992,3.65112,21.01476.31714,26.39648-9.11467a51.49082,51.49082,0,0,0-4.53066-3.95686Z" style="fill:#333"/><path d="M29.77913,54.65284a18.059,18.059,0,0,0-.256,3.07989V81.49564H40.94745V59.05708a11.444,11.444,0,0,1,.39763-3.18575A24.90773,24.90773,0,0,1,29.77913,54.65284Z" style="fill:#f98012"/><path d="M81.84488,46.6167q-4.4887-3.36641-12.135-3.36793-8.36658,0-11.52608,3.97784a10.49069,10.49069,0,0,0-2.01615-1.68542,21.19213,21.19213,0,0,1-6.48344,7.12325q2.7859,1.48289,2.78936,6.39264V81.49564H63.89592V59.05708q0-7.03693,5.81392-7.03739,5.81115,0,5.81209,7.03739V81.49564H86.94428V57.73273Q86.94428,50.389,81.84488,46.6167Z" style="fill:#f98012"/><path d="M112.69458,42.3409c-.07575,0-.14562.02057-.221.0222A57.35377,57.35377,0,0,0,36.3973,5.75721,11.25715,11.25715,0,0,0,17.61,17.86906,57.35579,57.35579,0,0,0,29.27026,109.239a11.25745,11.25745,0,0,0,21.11435,6.97325,57.11371,57.11371,0,0,0,64.333-51.4529,11.2994,11.2994,0,0,0-2.023-22.41843ZM57.4963,111.76256a52.77159,52.77159,0,0,1-5.82361-.34185c.00555-.14464.0431-.28015.0431-.42609a11.30381,11.30381,0,0,0-20.61708-6.41394,52.43054,52.43054,0,0,1-10.4238-82.83759A11.21134,11.21134,0,0,0,38.69233,10.16737a52.4046,52.4046,0,0,1,68.99393,33.39108,11.24454,11.24454,0,0,0,2.10533,20.98146A52.63907,52.63907,0,0,1,57.4963,111.76256Z" style="fill:#f98012"/></g></g></svg>